<svg xmlns="http://www.w3.org/2000/svg" width="880" height="320" viewBox="0 0 880 320" fill="none" role="img" aria-labelledby="t d" shape-rendering="crispEdges"><title id="t">Achievements</title><desc id="d">Trae on Campus 一等奖 — 南京大学站 · 手势切水果; 最受欢迎的 Skill — zhuoyu-workshop-skill; 184 项测试全通过 — retraction-watch-mcp; v1.0.0 正式发布 — eldercare-monitor; 学报 LaTeX 模板 — jcip-latex-template; 50+ 个开源仓库 — 教育 · 科研 · AI 工具</desc><style>@keyframes shine{0%{transform:translateX(0)}30%,100%{transform:translateX(130px)}}.shine{animation:shine 4s steps(12) infinite}@media (prefers-reduced-motion: reduce){*{animation:none!important}}</style><defs><clipPath id="tile0"><path d="M29 79h50v2h2v50h-2v2h-50v-2h-2v-50h2z"/></clipPath><clipPath id="tile1"><path d="M453 79h50v2h2v50h-2v2h-50v-2h-2v-50h2z"/></clipPath><clipPath id="tile2"><path d="M29 155h50v2h2v50h-2v2h-50v-2h-2v-50h2z"/></clipPath><clipPath id="tile3"><path d="M453 155h50v2h2v50h-2v2h-50v-2h-2v-50h2z"/></clipPath><clipPath id="tile4"><path d="M29 231h50v2h2v50h-2v2h-50v-2h-2v-50h2z"/></clipPath><clipPath id="tile5"><path d="M453 231h50v2h2v50h-2v2h-50v-2h-2v-50h2z"/></clipPath></defs><path fill="#D5CAE4" d="M16 8h856v4h4v4h4v296h-4v4h-4v4h-856v-4h-4v-4h-4v-296h4v-4h4z"/><path fill="#2A2140" d="M8 0h856v4h4v4h4v296h-4v4h-4v4h-856v-4h-4v-4h-4v-296h4v-4h4z"/><path fill="#FFFDF8" d="M8 4h856v4h4v296h-4v4h-856v-4h-4v-296h4z"/><path fill="#F6D6A8" d="M8 4h856v4h4v32h-4v4h-856v-4h-4v-32h4z"/><path fill="#BF8331" opacity=".28" d="M12 12h848v2h-848zM12 18h848v2h-848zM12 24h848v2h-848zM12 30h848v2h-848zM12 36h848v2h-848z"/><path fill="#2A2140" d="M4 44h864v4h-864z"/><path fill="#FFFDF8" d="M26 12h280v2h2v20h-2v2h-280v-2h-2v-20h2z"/><path fill="#2A2140" d="M44 16h6v2h-6zM60 16h8v2h-8zM72 16h4v6h-4zM82 16h4v6h-4zM90 16h12v2h-12zM104 16h14v2h-14zM120 16h4v6h-4zM130 16h4v6h-4zM136 16h14v2h-14zM152 16h4v2h-4zM162 16h4v2h-4zM168 16h14v2h-14zM184 16h4v2h-4zM194 16h4v6h-4zM202 16h12v2h-12zM218 16h10v2h-10zM42 18h4v2h-4zM48 18h4v2h-4zM58 18h4v2h-4zM66 18h4v2h-4zM94 18h4v10h-4zM104 18h4v4h-4zM136 18h4v4h-4zM152 18h6v2h-6zM160 18h6v2h-6zM168 18h4v4h-4zM184 18h6v2h-6zM206 18h4v12h-4zM216 18h4v4h-4zM226 18h4v2h-4zM40 20h4v4h-4zM50 20h4v4h-4zM56 20h4v6h-4zM152 20h14v2h-14zM184 20h8v2h-8zM72 22h14v2h-14zM104 22h12v2h-12zM120 22h6v2h-6zM128 22h6v2h-6zM136 22h12v2h-12zM152 22h4v8h-4zM158 22h2v4h-2zM162 22h4v8h-4zM168 22h12v2h-12zM184 22h4v8h-4zM190 22h8v2h-8zM218 22h10v2h-10zM40 24h14v2h-14zM72 24h4v6h-4zM82 24h4v6h-4zM104 24h4v4h-4zM122 24h10v2h-10zM136 24h4v4h-4zM168 24h4v4h-4zM192 24h6v2h-6zM226 24h4v4h-4zM40 26h4v4h-4zM50 26h4v4h-4zM58 26h4v2h-4zM66 26h4v2h-4zM124 26h6v2h-6zM194 26h4v4h-4zM216 26h4v2h-4zM60 28h8v2h-8zM90 28h12v2h-12zM104 28h14v2h-14zM126 28h2v2h-2zM136 28h14v2h-14zM168 28h14v2h-14zM218 28h10v2h-10z"/><path fill="#BF8331" d="M256 13h2v4h-2zM260 13h2v2h-2zM272 13h2v2h-2zM282 13h2v6h-2zM286 13h2v2h-2zM262 15h2v2h-2zM268 15h10v2h-10zM288 15h2v2h-2zM246 17h20v2h-20zM246 19h2v2h-2zM256 19h2v8h-2zM268 19h22v2h-22zM246 21h8v2h-8zM262 21h2v4h-2zM268 21h2v4h-2zM276 21h2v4h-2zM282 21h2v2h-2zM246 23h2v10h-2zM252 23h2v6h-2zM280 23h2v10h-2zM284 23h2v10h-2zM260 25h2v2h-2zM268 25h10v2h-10zM258 27h2v4h-2zM272 27h2v6h-2zM250 29h4v2h-4zM264 29h2v4h-2zM268 29h2v4h-2zM276 29h2v4h-2zM288 29h2v4h-2zM256 31h2v2h-2zM260 31h2v2h-2zM244 33h2v2h-2zM252 33h4v2h-4zM262 33h4v2h-4zM270 33h4v2h-4zM278 33h2v2h-2zM284 33h6v2h-6z"/><path fill="#FFFDF8" d="M708 12h138v2h2v20h-2v2h-138v-2h-2v-20h2z"/><path fill="#5E5575" d="M716 19h4v2h-4zM726 19h2v4h-2zM734 19h4v2h-4zM748 19h2v8h-2zM754 19h2v8h-2zM760 19h2v2h-2zM766 19h2v4h-2zM772 19h2v8h-2zM784 19h4v2h-4zM796 19h4v2h-4zM806 19h2v4h-2zM812 19h2v2h-2zM818 19h8v2h-8zM830 19h6v2h-6zM714 21h2v2h-2zM732 21h2v2h-2zM760 21h4v2h-4zM782 21h2v6h-2zM788 21h2v6h-2zM794 21h2v6h-2zM800 21h2v2h-2zM810 21h2v2h-2zM818 21h2v2h-2zM830 21h2v6h-2zM836 21h2v6h-2zM714 23h4v2h-4zM724 23h2v6h-2zM732 23h4v2h-4zM760 23h2v6h-2zM764 23h4v2h-4zM806 23h4v2h-4zM818 23h6v2h-6zM714 25h2v2h-2zM718 25h2v2h-2zM732 25h2v2h-2zM736 25h2v2h-2zM766 25h2v4h-2zM800 25h2v2h-2zM806 25h2v4h-2zM810 25h2v2h-2zM818 25h2v2h-2zM716 27h2v2h-2zM734 27h2v2h-2zM750 27h4v2h-4zM772 27h6v2h-6zM784 27h4v2h-4zM796 27h4v2h-4zM812 27h2v2h-2zM818 27h8v2h-8zM830 27h6v2h-6z"/><path fill="#2A2140" d="M28 76h52v2h2v2h2v52h-2v2h-2v2h-52v-2h-2v-2h-2v-52h2v-2h2z"/><path fill="#F5EDF4" d="M29 79h50v2h2v50h-2v2h-50v-2h-2v-50h2z"/><path fill="#2A2140" d="M40 84h28v4h-28zM36 88h4v4h-4zM68 88h4v4h-4zM32 92h4v8h-4zM40 92h4v8h-4zM64 92h4v8h-4zM72 92h4v8h-4zM36 100h4v4h-4zM68 100h4v4h-4zM40 104h8v4h-8zM60 104h8v4h-8zM48 108h4v4h-4zM56 108h4v4h-4zM44 112h8v4h-8zM56 112h8v4h-8zM40 116h4v4h-4zM64 116h4v4h-4zM36 120h4v4h-4zM68 120h4v4h-4zM40 124h28v4h-28z"/><path fill="#FFD15C" d="M40 88h28v4h-28zM36 92h4v8h-4zM48 92h12v8h-12zM68 92h4v8h-4zM40 100h8v4h-8zM52 100h8v4h-8zM64 100h4v4h-4zM48 104h8v4h-8zM52 108h4v4h-4zM44 116h16v4h-16zM40 120h24v4h-24z"/><path fill="#FFFFFF" d="M44 92h4v8h-4zM48 100h4v4h-4z"/><path fill="#E3A435" d="M60 92h4v12h-4zM56 104h4v4h-4zM52 112h4v4h-4zM60 116h4v4h-4zM64 120h4v4h-4z"/><g clip-path="url(#tile0)"><path class="shine" style="animation-delay:0.00s" fill="#FFFFFF" opacity=".55" d="M-6 76h8l-24 60h-8z"/></g><path fill="#2A2140" d="M314 82h4v2h-4zM324 82h4v2h-4zM342 82h4v4h-4zM348 82h4v2h-4zM100 84h16v2h-16zM202 84h8v2h-8zM314 84h26v2h-26zM348 84h12v2h-12zM106 86h4v16h-4zM200 86h4v2h-4zM208 86h4v2h-4zM312 86h4v2h-4zM318 86h8v2h-8zM328 86h4v2h-4zM338 86h8v2h-8zM348 86h4v2h-4zM356 86h4v4h-4zM198 88h4v10h-4zM314 88h20v2h-20zM342 88h12v2h-12zM116 90h10v2h-10zM128 90h8v2h-8zM140 90h8v2h-8zM164 90h8v2h-8zM174 90h10v2h-10zM214 90h8v2h-8zM224 90h14v2h-14zM240 90h10v2h-10zM252 90h4v2h-4zM260 90h4v2h-4zM266 90h8v2h-8zM322 90h4v2h-4zM340 90h6v2h-6zM352 90h6v2h-6zM116 92h6v2h-6zM134 92h8v2h-8zM146 92h4v2h-4zM162 92h4v8h-4zM170 92h10v2h-10zM182 92h4v10h-4zM220 92h8v2h-8zM230 92h4v10h-4zM236 92h8v8h-8zM248 92h8v8h-8zM260 92h8v2h-8zM272 92h4v2h-4zM288 92h66v2h-66zM116 94h4v8h-4zM128 94h22v2h-22zM170 94h8v6h-8zM214 94h14v2h-14zM260 94h4v4h-4zM266 94h6v2h-6zM328 94h4v2h-4zM346 94h4v2h-4zM126 96h4v4h-4zM134 96h8v4h-8zM212 96h4v2h-4zM220 96h8v4h-8zM270 96h4v2h-4zM312 96h48v2h-48zM146 98h4v2h-4zM200 98h4v2h-4zM208 98h8v2h-8zM258 98h10v2h-10zM272 98h4v2h-4zM318 98h4v2h-4zM328 98h4v4h-4zM344 98h8v2h-8zM128 100h10v2h-10zM140 100h8v2h-8zM164 100h8v2h-8zM174 100h4v2h-4zM202 100h8v2h-8zM214 100h14v2h-14zM236 100h14v2h-14zM254 100h10v2h-10zM266 100h8v2h-8zM320 100h4v2h-4zM340 100h6v2h-6zM350 100h6v2h-6zM240 102h4v4h-4zM324 102h8v2h-8zM336 102h6v2h-6zM354 102h6v2h-6z"/><path fill="#9A90B0" d="M110 110h2v2h-2zM134 110h2v2h-2zM158 110h2v6h-2zM174 110h2v2h-2zM180 110h2v2h-2zM190 110h2v2h-2zM198 110h2v2h-2zM210 110h2v4h-2zM268 110h8v2h-8zM284 110h2v2h-2zM294 110h2v2h-2zM306 110h2v6h-2zM312 110h14v2h-14zM338 110h2v6h-2zM354 110h18v2h-18zM100 112h22v2h-22zM124 112h22v2h-22zM176 112h2v2h-2zM182 112h2v2h-2zM188 112h2v2h-2zM200 112h2v2h-2zM258 112h10v2h-10zM280 112h10v2h-10zM292 112h8v2h-8zM316 112h2v14h-2zM324 112h2v18h-2zM354 112h2v2h-2zM362 112h2v2h-2zM370 112h2v2h-2zM110 114h2v2h-2zM172 114h22v2h-22zM196 114h10v2h-10zM210 114h8v2h-8zM266 114h2v4h-2zM284 114h2v2h-2zM294 114h2v4h-2zM298 114h2v6h-2zM348 114h2v2h-2zM354 114h18v2h-18zM100 116h22v2h-22zM126 116h18v2h-18zM148 116h22v2h-22zM172 116h2v4h-2zM192 116h2v4h-2zM210 116h2v6h-2zM284 116h4v2h-4zM290 116h2v2h-2zM306 116h6v2h-6zM328 116h8v2h-8zM338 116h4v4h-4zM346 116h2v2h-2zM354 116h2v2h-2zM362 116h2v2h-2zM370 116h2v2h-2zM100 118h2v14h-2zM106 118h2v2h-2zM114 118h2v2h-2zM120 118h2v12h-2zM126 118h2v4h-2zM142 118h2v4h-2zM158 118h2v2h-2zM176 118h14v2h-14zM196 118h2v2h-2zM202 118h2v6h-2zM258 118h18v2h-18zM280 118h6v2h-6zM292 118h2v2h-2zM304 118h4v2h-4zM334 118h2v4h-2zM344 118h2v2h-2zM354 118h18v2h-18zM108 120h2v2h-2zM112 120h2v2h-2zM156 120h2v4h-2zM160 120h2v4h-2zM186 120h2v2h-2zM198 120h2v4h-2zM236 120h4v4h-4zM266 120h2v4h-2zM284 120h2v2h-2zM290 120h2v4h-2zM294 120h2v2h-2zM300 120h2v4h-2zM306 120h2v6h-2zM338 120h2v10h-2zM342 120h2v4h-2zM362 120h2v2h-2zM104 122h14v2h-14zM126 122h18v2h-18zM182 122h4v2h-4zM206 122h12v2h-12zM282 122h2v2h-2zM332 122h2v4h-2zM352 122h22v2h-22zM110 124h2v2h-2zM134 124h2v6h-2zM154 124h2v4h-2zM162 124h2v4h-2zM172 124h22v2h-22zM200 124h2v2h-2zM206 124h2v2h-2zM216 124h2v6h-2zM256 124h22v2h-22zM280 124h20v2h-20zM310 124h2v2h-2zM344 124h2v2h-2zM358 124h2v2h-2zM362 124h2v8h-2zM366 124h2v2h-2zM104 126h14v2h-14zM128 126h2v2h-2zM140 126h2v2h-2zM182 126h2v4h-2zM200 126h8v2h-8zM266 126h2v4h-2zM288 126h2v2h-2zM298 126h2v4h-2zM306 126h4v2h-4zM314 126h2v4h-2zM330 126h2v2h-2zM346 126h2v2h-2zM356 126h2v2h-2zM368 126h2v2h-2zM110 128h2v4h-2zM124 128h4v2h-4zM142 128h4v2h-4zM152 128h2v2h-2zM164 128h2v2h-2zM196 128h4v2h-4zM206 128h2v2h-2zM286 128h2v2h-2zM306 128h2v2h-2zM328 128h2v2h-2zM348 128h2v2h-2zM352 128h4v2h-4zM370 128h4v2h-4zM116 130h6v2h-6zM130 130h6v2h-6zM148 130h4v2h-4zM166 130h4v2h-4zM178 130h6v2h-6zM206 130h12v2h-12zM262 130h6v2h-6zM282 130h4v2h-4zM294 130h4v2h-4zM312 130h2v2h-2zM320 130h4v2h-4zM334 130h6v2h-6z"/><path fill="#2A2140" d="M452 76h52v2h2v2h2v52h-2v2h-2v2h-52v-2h-2v-2h-2v-52h2v-2h2z"/><path fill="#F5EDF4" d="M453 79h50v2h2v50h-2v2h-50v-2h-2v-50h2z"/><path fill="#2A2140" d="M476 88h4v4h-4zM472 92h4v4h-4zM480 92h4v4h-4zM460 96h12v4h-12zM484 96h12v4h-12zM456 100h4v4h-4zM496 100h4v4h-4zM460 104h4v4h-4zM492 104h4v4h-4zM464 108h4v8h-4zM488 108h4v8h-4zM476 112h4v4h-4zM460 116h4v4h-4zM472 116h4v4h-4zM480 116h4v4h-4zM492 116h4v4h-4zM464 120h8v4h-8zM484 120h8v4h-8z"/><path fill="#FFD15C" d="M476 92h4v4h-4zM472 96h12v4h-12zM460 100h12v4h-12zM476 100h12v4h-12zM464 104h24v4h-24zM468 108h16v4h-16zM468 112h8v4h-8zM480 112h4v4h-4zM464 116h4v4h-4zM484 116h4v4h-4z"/><path fill="#FFFFFF" d="M472 100h4v4h-4z"/><path fill="#E3A435" d="M488 100h8v4h-8zM488 104h4v4h-4zM484 108h4v8h-4zM468 116h4v4h-4zM488 116h4v4h-4z"/><g clip-path="url(#tile1)"><path class="shine" style="animation-delay:0.35s" fill="#FFFFFF" opacity=".55" d="M418 76h8l-24 60h-8z"/></g><path fill="#2A2140" d="M526 82h20v2h-20zM562 82h8v2h-8zM582 82h4v2h-4zM596 82h4v2h-4zM606 82h4v2h-4zM624 82h4v2h-4zM632 82h4v4h-4zM526 84h4v2h-4zM542 84h4v2h-4zM550 84h14v2h-14zM572 84h14v2h-14zM598 84h10v2h-10zM610 84h10v2h-10zM622 84h4v2h-4zM658 84h10v2h-10zM670 84h4v2h-4zM684 84h4v2h-4zM690 84h6v2h-6zM698 84h6v2h-6zM526 86h20v2h-20zM552 86h4v2h-4zM558 86h4v2h-4zM566 86h4v2h-4zM578 86h18v2h-18zM602 86h4v4h-4zM610 86h4v8h-4zM616 86h28v2h-28zM656 86h4v4h-4zM666 86h8v2h-8zM692 86h4v14h-4zM700 86h4v14h-4zM526 88h4v2h-4zM542 88h4v2h-4zM554 88h4v2h-4zM560 88h8v2h-8zM572 88h4v2h-4zM578 88h8v2h-8zM592 88h4v2h-4zM616 88h8v6h-8zM628 88h6v2h-6zM640 88h4v6h-4zM670 88h4v4h-4zM524 90h48v2h-48zM574 90h10v2h-10zM586 90h8v2h-8zM596 90h10v2h-10zM628 90h4v4h-4zM658 90h4v2h-4zM678 90h10v2h-10zM526 92h4v2h-4zM532 92h4v2h-4zM548 92h4v2h-4zM568 92h4v2h-4zM574 92h8v2h-8zM586 92h4v4h-4zM598 92h8v2h-8zM634 92h4v2h-4zM660 92h6v2h-6zM670 92h10v2h-10zM684 92h4v8h-4zM526 94h46v2h-46zM576 94h4v4h-4zM598 94h16v2h-16zM616 94h16v2h-16zM636 94h8v4h-8zM664 94h4v2h-4zM670 94h6v2h-6zM526 96h4v2h-4zM532 96h8v2h-8zM544 96h4v2h-4zM552 96h4v2h-4zM564 96h4v2h-4zM584 96h8v4h-8zM598 96h10v2h-10zM610 96h14v2h-14zM628 96h4v6h-4zM666 96h12v2h-12zM526 98h20v2h-20zM554 98h4v2h-4zM562 98h4v2h-4zM574 98h8v2h-8zM598 98h4v2h-4zM610 98h4v4h-4zM620 98h4v4h-4zM640 98h4v4h-4zM656 98h4v2h-4zM666 98h8v2h-8zM676 98h4v2h-4zM524 100h12v2h-12zM540 100h4v2h-4zM556 100h8v2h-8zM574 100h12v2h-12zM590 100h4v2h-4zM596 100h8v2h-8zM658 100h10v2h-10zM670 100h4v2h-4zM678 100h12v2h-12zM692 100h6v2h-6zM700 100h6v2h-6zM532 102h26v2h-26zM562 102h14v2h-14zM580 102h4v2h-4zM592 102h8v2h-8zM602 102h30v2h-30zM636 102h6v2h-6z"/><path fill="#9A90B0" d="M536 112h2v8h-2zM646 112h2v10h-2zM670 112h2v8h-2zM730 112h2v10h-2zM744 112h2v2h-2zM750 112h4v2h-4zM758 112h4v2h-4zM752 114h2v14h-2zM760 114h2v14h-2zM524 118h10v2h-10zM540 118h4v2h-4zM548 118h2v10h-2zM556 118h2v8h-2zM562 118h6v2h-6zM572 118h2v6h-2zM580 118h2v6h-2zM584 118h2v10h-2zM592 118h2v8h-2zM608 118h2v8h-2zM614 118h2v4h-2zM620 118h2v8h-2zM626 118h6v2h-6zM636 118h2v2h-2zM640 118h4v2h-4zM654 118h2v2h-2zM660 118h6v2h-6zM674 118h4v2h-4zM684 118h6v2h-6zM694 118h8v2h-8zM720 118h6v2h-6zM738 118h2v2h-2zM742 118h4v2h-4zM530 120h2v2h-2zM536 120h4v2h-4zM544 120h2v10h-2zM560 120h2v8h-2zM568 120h2v8h-2zM624 120h2v8h-2zM632 120h2v8h-2zM636 120h4v2h-4zM650 120h4v2h-4zM658 120h2v2h-2zM666 120h2v2h-2zM670 120h4v2h-4zM678 120h2v10h-2zM682 120h2v8h-2zM690 120h2v8h-2zM694 120h2v8h-2zM702 120h2v8h-2zM718 120h2v2h-2zM726 120h2v2h-2zM734 120h4v2h-4zM744 120h2v8h-2zM528 122h2v2h-2zM536 122h2v8h-2zM596 122h10v2h-10zM612 122h2v4h-2zM616 122h2v4h-2zM636 122h2v8h-2zM646 122h4v2h-4zM660 122h4v2h-4zM670 122h2v8h-2zM706 122h10v2h-10zM720 122h4v2h-4zM730 122h4v2h-4zM526 124h2v2h-2zM574 124h2v4h-2zM578 124h2v4h-2zM646 124h2v6h-2zM650 124h2v2h-2zM664 124h2v2h-2zM724 124h2v2h-2zM730 124h2v6h-2zM734 124h2v2h-2zM524 126h2v2h-2zM554 126h4v2h-4zM590 126h4v2h-4zM610 126h2v4h-2zM618 126h2v4h-2zM652 126h2v2h-2zM658 126h2v2h-2zM666 126h2v2h-2zM718 126h2v2h-2zM726 126h2v2h-2zM736 126h2v2h-2zM524 128h10v2h-10zM550 128h4v2h-4zM556 128h2v2h-2zM562 128h6v2h-6zM576 128h2v4h-2zM586 128h4v2h-4zM592 128h2v2h-2zM626 128h6v2h-6zM654 128h2v2h-2zM660 128h6v2h-6zM684 128h6v2h-6zM694 128h8v2h-8zM720 128h6v2h-6zM738 128h2v2h-2zM742 128h6v2h-6zM752 128h4v2h-4zM760 128h4v2h-4zM694 130h2v4h-2zM572 132h4v2h-4z"/><path fill="#2A2140" d="M28 152h52v2h2v2h2v52h-2v2h-2v2h-52v-2h-2v-2h-2v-52h2v-2h2z"/><path fill="#F5EDF4" d="M29 155h50v2h2v50h-2v2h-50v-2h-2v-50h2z"/><path fill="#2A2140" d="M40 160h28v4h-28zM36 164h4v4h-4zM68 164h4v4h-4zM32 168h4v28h-4zM72 168h4v28h-4zM36 196h4v4h-4zM68 196h4v4h-4zM40 200h28v4h-28z"/><path fill="#5CCBBE" d="M40 164h28v4h-28zM36 168h36v4h-36zM36 172h28v4h-28zM68 172h4v4h-4zM36 176h24v4h-24zM64 176h8v4h-8zM36 180h4v4h-4zM44 180h12v4h-12zM60 180h12v4h-12zM36 184h8v4h-8zM48 184h4v4h-4zM56 184h16v4h-16zM36 188h12v4h-12zM52 188h20v4h-20zM36 192h36v4h-36zM40 196h28v4h-28z"/><path fill="#FFFFFF" d="M64 172h4v4h-4zM60 176h4v4h-4zM40 180h4v4h-4zM56 180h4v4h-4zM44 184h4v4h-4zM52 184h4v4h-4zM48 188h4v4h-4z"/><g clip-path="url(#tile2)"><path class="shine" style="animation-delay:0.70s" fill="#FFFFFF" opacity=".55" d="M-6 152h8l-24 60h-8z"/></g><path fill="#2A2140" d="M156 158h32v2h-32zM192 158h8v2h-8zM210 158h8v2h-8zM230 158h4v2h-4zM244 158h4v2h-4zM252 158h14v2h-14zM268 158h4v2h-4zM284 158h4v4h-4zM104 160h4v2h-4zM114 160h8v2h-8zM130 160h4v2h-4zM148 160h8v2h-8zM162 160h4v2h-4zM174 160h6v2h-6zM184 160h12v2h-12zM198 160h4v2h-4zM210 160h4v2h-4zM216 160h4v2h-4zM228 160h8v2h-8zM246 160h4v2h-4zM256 160h8v2h-8zM270 160h4v2h-4zM102 162h6v2h-6zM112 162h4v6h-4zM120 162h4v6h-4zM128 162h6v4h-6zM150 162h4v10h-4zM156 162h16v2h-16zM176 162h20v2h-20zM202 162h18v2h-18zM224 162h6v2h-6zM234 162h6v2h-6zM258 162h4v2h-4zM274 162h18v2h-18zM104 164h4v12h-4zM156 164h4v8h-4zM168 164h28v2h-28zM210 164h4v4h-4zM220 164h6v2h-6zM238 164h6v2h-6zM252 164h16v2h-16zM284 164h4v10h-4zM126 166h8v4h-8zM162 166h4v8h-4zM168 166h4v8h-4zM174 166h28v2h-28zM224 166h16v2h-16zM244 166h6v2h-6zM252 166h4v2h-4zM258 166h4v2h-4zM264 166h10v2h-10zM276 166h4v2h-4zM114 168h8v2h-8zM176 168h20v4h-20zM198 168h16v2h-16zM230 168h4v4h-4zM246 168h4v8h-4zM252 168h16v2h-16zM270 168h4v8h-4zM278 168h4v4h-4zM112 170h4v6h-4zM120 170h8v2h-8zM130 170h4v2h-4zM198 170h4v6h-4zM206 170h4v6h-4zM212 170h4v4h-4zM252 170h4v2h-4zM258 170h4v2h-4zM264 170h4v2h-4zM120 172h16v2h-16zM150 172h10v2h-10zM174 172h22v2h-22zM222 172h20v2h-20zM252 172h16v2h-16zM120 174h4v2h-4zM130 174h4v4h-4zM148 174h6v2h-6zM160 174h8v2h-8zM174 174h4v2h-4zM180 174h4v2h-4zM192 174h4v4h-4zM212 174h8v2h-8zM230 174h4v4h-4zM252 174h4v2h-4zM258 174h4v2h-4zM264 174h4v2h-4zM280 174h8v2h-8zM102 176h8v2h-8zM114 176h8v2h-8zM158 176h4v2h-4zM166 176h4v2h-4zM172 176h4v2h-4zM178 176h8v2h-8zM198 176h6v2h-6zM206 176h14v2h-14zM244 176h8v2h-8zM268 176h8v2h-8zM156 178h4v2h-4zM168 178h12v2h-12zM184 178h12v2h-12zM198 178h10v2h-10zM216 178h32v2h-32zM250 178h22v2h-22zM274 178h18v2h-18z"/><path fill="#9A90B0" d="M124 188h2v6h-2zM168 188h2v6h-2zM178 188h2v2h-2zM250 188h2v6h-2zM270 188h2v8h-2zM100 194h2v2h-2zM104 194h4v2h-4zM112 194h6v2h-6zM122 194h8v2h-8zM132 194h2v2h-2zM136 194h4v2h-4zM144 194h6v2h-6zM156 194h6v2h-6zM166 194h8v2h-8zM176 194h4v2h-4zM186 194h6v2h-6zM196 194h2v2h-2zM200 194h4v2h-4zM220 194h2v8h-2zM226 194h2v4h-2zM232 194h2v8h-2zM238 194h6v2h-6zM248 194h8v2h-8zM260 194h6v2h-6zM274 194h4v2h-4zM294 194h6v2h-6zM302 194h4v2h-4zM312 194h6v2h-6zM322 194h8v2h-8zM100 196h4v2h-4zM110 196h2v2h-2zM118 196h2v2h-2zM124 196h2v8h-2zM132 196h4v2h-4zM150 196h2v2h-2zM154 196h2v8h-2zM162 196h2v2h-2zM168 196h2v8h-2zM178 196h2v8h-2zM184 196h2v8h-2zM192 196h2v8h-2zM196 196h4v2h-4zM204 196h2v10h-2zM244 196h2v2h-2zM250 196h2v8h-2zM258 196h2v8h-2zM266 196h2v2h-2zM270 196h4v2h-4zM278 196h2v10h-2zM294 196h2v10h-2zM300 196h2v10h-2zM306 196h2v10h-2zM310 196h2v8h-2zM318 196h2v2h-2zM322 196h2v8h-2zM330 196h2v8h-2zM100 198h2v8h-2zM110 198h10v2h-10zM132 198h2v8h-2zM144 198h8v2h-8zM196 198h2v8h-2zM208 198h10v2h-10zM224 198h2v4h-2zM228 198h2v4h-2zM238 198h8v2h-8zM270 198h2v8h-2zM282 198h10v2h-10zM110 200h2v4h-2zM142 200h2v4h-2zM150 200h2v4h-2zM236 200h2v4h-2zM244 200h2v4h-2zM118 202h2v2h-2zM162 202h2v2h-2zM222 202h2v4h-2zM230 202h2v4h-2zM266 202h2v2h-2zM318 202h2v2h-2zM112 204h6v2h-6zM126 204h4v2h-4zM144 204h8v2h-8zM156 204h6v2h-6zM170 204h4v2h-4zM176 204h6v2h-6zM186 204h6v2h-6zM238 204h8v2h-8zM252 204h4v2h-4zM260 204h6v2h-6zM312 204h6v2h-6zM322 204h8v2h-8zM322 206h2v4h-2z"/><path fill="#2A2140" d="M452 152h52v2h2v2h2v52h-2v2h-2v2h-52v-2h-2v-2h-2v-52h2v-2h2z"/><path fill="#F5EDF4" d="M453 155h50v2h2v50h-2v2h-50v-2h-2v-50h2z"/><path fill="#2A2140" d="M476 160h4v4h-4zM472 164h4v4h-4zM480 164h4v4h-4zM468 168h4v12h-4zM484 168h4v12h-4zM464 180h4v4h-4zM488 180h4v4h-4zM460 184h4v4h-4zM472 184h4v4h-4zM480 184h4v4h-4zM492 184h4v4h-4zM464 188h12v4h-12zM480 188h12v4h-12zM468 192h4v4h-4zM484 192h4v4h-4zM472 196h4v4h-4zM480 196h4v4h-4zM476 200h4v4h-4z"/><path fill="#FFFFFF" d="M476 164h4v4h-4z"/><path fill="#C9CCE2" d="M472 168h12v4h-12zM472 172h4v4h-4zM480 172h4v4h-4zM472 176h12v8h-12zM476 184h4v4h-4z"/><path fill="#7FA8F0" d="M476 172h4v4h-4z"/><path fill="#F07C8C" d="M468 180h4v4h-4zM484 180h4v4h-4zM464 184h8v4h-8zM484 184h8v4h-8z"/><path fill="#FFA25C" d="M476 188h4v4h-4zM472 192h12v4h-12zM476 196h4v4h-4z"/><g clip-path="url(#tile3)"><path class="shine" style="animation-delay:1.05s" fill="#FFFFFF" opacity=".55" d="M418 152h8l-24 60h-8z"/></g><path fill="#2A2140" d="M600 158h24v2h-24zM638 158h8v2h-8zM650 158h4v4h-4zM656 158h4v6h-4zM662 158h4v2h-4zM680 158h4v2h-4zM540 160h4v2h-4zM558 160h8v2h-8zM578 160h8v2h-8zM610 160h4v8h-4zM638 160h4v2h-4zM644 160h4v2h-4zM664 160h4v2h-4zM672 160h24v2h-24zM538 162h6v2h-6zM556 162h4v6h-4zM564 162h4v4h-4zM576 162h4v6h-4zM584 162h4v4h-4zM624 162h28v2h-28zM678 162h4v2h-4zM540 164h4v12h-4zM638 164h4v4h-4zM648 164h24v2h-24zM676 164h4v2h-4zM684 164h4v4h-4zM524 166h4v4h-4zM532 166h4v4h-4zM562 166h6v2h-6zM582 166h6v2h-6zM604 166h4v12h-4zM654 166h4v2h-4zM674 166h4v2h-4zM556 168h12v2h-12zM576 168h12v2h-12zM610 168h12v2h-12zM624 168h18v2h-18zM654 168h14v2h-14zM672 168h22v2h-22zM526 170h8v4h-8zM556 170h6v2h-6zM564 170h4v6h-4zM576 170h6v2h-6zM584 170h4v6h-4zM610 170h4v8h-4zM630 170h4v6h-4zM638 170h4v2h-4zM652 170h8v2h-8zM664 170h4v2h-4zM676 170h4v8h-4zM684 170h4v6h-4zM690 170h4v6h-4zM556 172h4v4h-4zM576 172h4v4h-4zM640 172h4v2h-4zM652 172h4v2h-4zM658 172h8v2h-8zM528 174h4v4h-4zM640 174h8v2h-8zM650 174h4v4h-4zM660 174h4v2h-4zM538 176h8v2h-8zM550 176h4v2h-4zM558 176h8v2h-8zM570 176h4v2h-4zM578 176h8v2h-8zM630 176h8v2h-8zM642 176h6v2h-6zM656 176h12v2h-12zM684 176h10v2h-10zM600 178h32v2h-32zM644 178h14v2h-14zM666 178h6v2h-6zM684 178h4v2h-4z"/><path fill="#9A90B0" d="M536 188h4v2h-4zM552 188h2v6h-2zM678 188h2v2h-2zM686 188h2v6h-2zM538 190h2v14h-2zM526 194h6v2h-6zM546 194h8v2h-8zM558 194h6v2h-6zM568 194h2v2h-2zM572 194h4v2h-4zM580 194h6v2h-6zM592 194h6v2h-6zM602 194h2v2h-2zM606 194h4v2h-4zM614 194h6v2h-6zM636 194h6v2h-6zM644 194h4v2h-4zM654 194h6v2h-6zM664 194h2v2h-2zM668 194h4v2h-4zM676 194h4v2h-4zM684 194h8v2h-8zM696 194h6v2h-6zM706 194h2v2h-2zM710 194h4v2h-4zM524 196h2v2h-2zM532 196h2v2h-2zM544 196h2v8h-2zM552 196h2v8h-2zM556 196h2v2h-2zM564 196h2v2h-2zM568 196h4v2h-4zM578 196h2v8h-2zM586 196h2v2h-2zM598 196h2v2h-2zM602 196h4v2h-4zM612 196h2v2h-2zM620 196h2v2h-2zM636 196h2v10h-2zM642 196h2v10h-2zM648 196h2v10h-2zM652 196h2v8h-2zM660 196h2v8h-2zM664 196h4v2h-4zM672 196h2v10h-2zM678 196h2v8h-2zM686 196h2v8h-2zM694 196h2v8h-2zM702 196h2v8h-2zM706 196h4v2h-4zM524 198h10v2h-10zM556 198h10v2h-10zM568 198h2v8h-2zM592 198h8v2h-8zM602 198h2v8h-2zM612 198h10v2h-10zM624 198h10v2h-10zM664 198h2v8h-2zM706 198h2v8h-2zM524 200h2v4h-2zM556 200h2v4h-2zM590 200h2v4h-2zM598 200h2v4h-2zM612 200h2v4h-2zM532 202h2v2h-2zM564 202h2v2h-2zM586 202h2v2h-2zM620 202h2v2h-2zM526 204h6v2h-6zM538 204h4v2h-4zM546 204h8v2h-8zM558 204h6v2h-6zM580 204h6v2h-6zM592 204h8v2h-8zM614 204h6v2h-6zM654 204h6v2h-6zM676 204h6v2h-6zM688 204h4v2h-4zM696 204h6v2h-6z"/><path fill="#2A2140" d="M28 228h52v2h2v2h2v52h-2v2h-2v2h-52v-2h-2v-2h-2v-52h2v-2h2z"/><path fill="#F5EDF4" d="M29 231h50v2h2v50h-2v2h-50v-2h-2v-50h2z"/><path fill="#2A2140" d="M36 236h28v4h-28zM32 240h4v36h-4zM64 240h4v4h-4zM68 244h4v4h-4zM72 248h4v28h-4zM36 276h36v4h-36z"/><path fill="#FFFFFF" d="M36 240h28v12h-28zM36 252h4v4h-4zM60 252h12v4h-12zM36 256h36v4h-36zM36 260h4v4h-4zM68 260h4v4h-4zM36 264h36v4h-36zM36 268h4v4h-4zM56 268h16v4h-16zM36 272h36v4h-36z"/><path fill="#D9C9D3" d="M64 244h4v4h-4zM64 248h8v4h-8z"/><path fill="#BBA9E0" d="M40 252h20v4h-20zM40 260h28v4h-28zM40 268h16v4h-16z"/><g clip-path="url(#tile4)"><path class="shine" style="animation-delay:1.40s" fill="#FFFFFF" opacity=".55" d="M-6 228h8l-24 60h-8z"/></g><path fill="#2A2140" d="M102 234h4v2h-4zM108 234h4v2h-4zM118 234h4v2h-4zM128 234h4v4h-4zM134 234h14v2h-14zM244 234h4v2h-4zM252 234h8v2h-8zM268 234h4v4h-4zM282 234h6v2h-6zM104 236h4v2h-4zM110 236h4v2h-4zM116 236h4v2h-4zM134 236h4v2h-4zM144 236h4v4h-4zM160 236h4v16h-4zM184 236h16v2h-16zM212 236h4v2h-4zM224 236h4v2h-4zM244 236h20v2h-20zM274 236h10v2h-10zM100 238h38v2h-38zM190 238h4v16h-4zM214 238h4v4h-4zM222 238h4v4h-4zM240 238h10v2h-10zM252 238h8v2h-8zM264 238h14v2h-14zM100 240h4v2h-4zM120 240h4v2h-4zM128 240h4v4h-4zM134 240h4v4h-4zM140 240h8v2h-8zM244 240h4v4h-4zM250 240h12v2h-12zM268 240h4v4h-4zM274 240h4v2h-4zM100 242h24v2h-24zM174 242h8v2h-8zM202 242h8v2h-8zM216 242h8v2h-8zM250 242h4v2h-4zM258 242h4v2h-4zM274 242h14v2h-14zM114 244h4v2h-4zM128 244h20v2h-20zM180 244h4v2h-4zM200 244h4v2h-4zM208 244h4v2h-4zM218 244h4v2h-4zM242 244h6v2h-6zM250 244h12v2h-12zM266 244h6v2h-6zM274 244h4v2h-4zM284 244h4v4h-4zM110 246h6v2h-6zM124 246h8v2h-8zM134 246h6v2h-6zM144 246h4v2h-4zM174 246h10v2h-10zM200 246h12v2h-12zM216 246h8v2h-8zM242 246h12v2h-12zM258 246h4v2h-4zM266 246h14v2h-14zM100 248h24v2h-24zM128 248h4v6h-4zM134 248h12v2h-12zM172 248h4v4h-4zM180 248h4v4h-4zM200 248h4v4h-4zM214 248h4v4h-4zM222 248h4v4h-4zM240 248h32v2h-32zM274 248h12v2h-12zM110 250h4v4h-4zM134 250h4v2h-4zM140 250h4v2h-4zM208 250h4v2h-4zM244 250h4v4h-4zM254 250h4v2h-4zM268 250h4v4h-4zM274 250h4v2h-4zM280 250h4v2h-4zM134 252h12v2h-12zM160 252h12v2h-12zM174 252h10v2h-10zM202 252h8v2h-8zM212 252h4v2h-4zM224 252h4v2h-4zM252 252h8v2h-8zM274 252h12v2h-12zM106 254h8v2h-8zM124 254h8v2h-8zM134 254h6v2h-6zM144 254h4v2h-4zM244 254h10v2h-10zM258 254h6v2h-6zM268 254h12v2h-12zM284 254h4v2h-4z"/><path fill="#9A90B0" d="M104 264h2v2h-2zM122 264h2v2h-2zM152 264h4v2h-4zM174 264h2v6h-2zM220 264h2v6h-2zM268 264h4v2h-4zM290 264h2v6h-2zM154 266h2v14h-2zM270 266h2v14h-2zM100 270h6v2h-6zM110 270h6v2h-6zM120 270h4v2h-4zM128 270h8v2h-8zM162 270h6v2h-6zM172 270h8v2h-8zM184 270h6v2h-6zM194 270h2v2h-2zM202 270h2v2h-2zM218 270h8v2h-8zM230 270h6v2h-6zM240 270h6v2h-6zM248 270h4v2h-4zM256 270h8v2h-8zM278 270h6v2h-6zM288 270h8v2h-8zM300 270h6v2h-6zM104 272h2v12h-2zM108 272h2v8h-2zM116 272h2v2h-2zM122 272h2v8h-2zM128 272h2v8h-2zM136 272h2v8h-2zM168 272h2v2h-2zM174 272h2v8h-2zM182 272h2v2h-2zM190 272h2v2h-2zM196 272h2v2h-2zM200 272h2v2h-2zM220 272h2v8h-2zM228 272h2v2h-2zM236 272h2v2h-2zM240 272h2v10h-2zM246 272h2v10h-2zM252 272h2v10h-2zM256 272h2v8h-2zM264 272h2v8h-2zM284 272h2v2h-2zM290 272h2v8h-2zM298 272h2v2h-2zM306 272h2v2h-2zM140 274h10v2h-10zM162 274h8v2h-8zM182 274h10v2h-10zM198 274h2v4h-2zM206 274h10v2h-10zM228 274h10v2h-10zM278 274h8v2h-8zM298 274h10v2h-10zM160 276h2v4h-2zM168 276h2v4h-2zM182 276h2v4h-2zM228 276h2v4h-2zM276 276h2v4h-2zM284 276h2v4h-2zM298 276h2v4h-2zM116 278h2v2h-2zM190 278h2v2h-2zM196 278h2v2h-2zM200 278h2v2h-2zM236 278h2v2h-2zM306 278h2v2h-2zM110 280h6v2h-6zM120 280h6v2h-6zM128 280h8v2h-8zM154 280h4v2h-4zM162 280h8v2h-8zM176 280h4v2h-4zM184 280h6v2h-6zM194 280h2v2h-2zM202 280h2v2h-2zM222 280h4v2h-4zM230 280h6v2h-6zM256 280h8v2h-8zM270 280h4v2h-4zM278 280h8v2h-8zM292 280h4v2h-4zM300 280h6v2h-6zM128 282h2v4h-2zM256 282h2v4h-2zM100 284h4v2h-4z"/><path fill="#2A2140" d="M452 228h52v2h2v2h2v52h-2v2h-2v2h-52v-2h-2v-2h-2v-52h2v-2h2z"/><path fill="#F5EDF4" d="M453 231h50v2h2v50h-2v2h-50v-2h-2v-50h2z"/><path fill="#2A2140" d="M464 238h28v4h-28zM460 242h4v4h-4zM492 242h4v4h-4zM456 246h4v28h-4zM496 246h4v28h-4zM460 274h36v4h-36z"/><path fill="#B98458" d="M464 242h28v4h-28zM460 246h36v4h-36zM460 250h4v4h-4zM492 250h4v4h-4zM460 258h16v8h-16zM480 258h16v8h-16zM460 266h36v4h-36zM460 270h4v4h-4zM492 270h4v4h-4z"/><path fill="#8F6240" d="M464 250h28v4h-28zM464 270h28v4h-28z"/><path fill="#FFD15C" d="M460 254h36v4h-36zM476 262h4v4h-4z"/><path fill="#FFFFFF" d="M476 258h4v4h-4z"/><g clip-path="url(#tile5)"><path class="shine" style="animation-delay:1.75s" fill="#FFFFFF" opacity=".55" d="M418 228h8l-24 60h-8z"/></g><path fill="#2A2140" d="M582 234h4v2h-4zM596 234h28v2h-28zM626 234h18v2h-18zM654 234h4v2h-4zM680 234h4v2h-4zM524 236h12v2h-12zM538 236h8v2h-8zM580 236h8v2h-8zM600 236h4v8h-4zM612 236h4v8h-4zM622 236h8v2h-8zM634 236h4v2h-4zM652 236h8v2h-8zM670 236h22v2h-22zM524 238h4v6h-4zM536 238h4v6h-4zM544 238h4v4h-4zM578 238h4v2h-4zM586 238h4v2h-4zM626 238h16v2h-16zM648 238h6v2h-6zM658 238h6v2h-6zM670 238h4v2h-4zM678 238h4v2h-4zM576 240h4v2h-4zM588 240h4v2h-4zM620 240h4v2h-4zM626 240h8v2h-8zM638 240h4v2h-4zM644 240h6v2h-6zM662 240h6v2h-6zM670 240h22v2h-22zM542 242h6v2h-6zM552 242h4v4h-4zM572 242h6v2h-6zM582 242h4v14h-4zM590 242h6v2h-6zM622 242h20v2h-20zM648 242h16v2h-16zM670 242h4v2h-4zM676 242h4v2h-4zM524 244h10v2h-10zM536 244h12v2h-12zM596 244h24v2h-24zM626 244h8v2h-8zM638 244h4v2h-4zM648 244h4v10h-4zM660 244h4v4h-4zM670 244h8v2h-8zM680 244h4v2h-4zM532 246h10v2h-10zM544 246h16v2h-16zM600 246h4v4h-4zM612 246h4v10h-4zM626 246h16v2h-16zM670 246h20v2h-20zM532 248h8v4h-8zM544 248h4v4h-4zM552 248h4v4h-4zM622 248h8v2h-8zM634 248h4v2h-4zM656 248h8v2h-8zM670 248h4v2h-4zM680 248h4v2h-4zM524 250h4v2h-4zM598 250h4v4h-4zM622 250h20v2h-20zM670 250h22v2h-22zM526 252h8v2h-8zM538 252h8v2h-8zM620 252h4v2h-4zM626 252h12v2h-12zM640 252h4v4h-4zM664 252h4v2h-4zM670 252h4v2h-4zM680 252h4v4h-4zM596 254h4v2h-4zM620 254h18v2h-18zM650 254h22v2h-22z"/><path fill="#9A90B0" d="M528 262h2v2h-2zM538 262h2v4h-2zM558 262h2v2h-2zM614 262h2v2h-2zM626 262h2v12h-2zM632 262h8v2h-8zM642 262h12v2h-12zM730 262h18v2h-18zM756 262h14v2h-14zM524 264h8v2h-8zM534 264h2v2h-2zM548 264h22v2h-22zM608 264h6v2h-6zM620 264h2v2h-2zM636 264h2v4h-2zM644 264h2v8h-2zM650 264h2v8h-2zM698 264h2v4h-2zM708 264h6v2h-6zM738 264h2v18h-2zM756 264h2v2h-2zM768 264h2v2h-2zM528 266h2v2h-2zM532 266h2v2h-2zM538 266h8v2h-8zM554 266h2v2h-2zM612 266h2v4h-2zM622 266h2v2h-2zM710 266h2v14h-2zM756 266h14v2h-14zM524 268h14v2h-14zM542 268h2v10h-2zM552 268h2v2h-2zM564 268h2v2h-2zM634 268h2v2h-2zM696 268h2v4h-2zM700 268h2v4h-2zM756 268h2v2h-2zM768 268h2v2h-2zM528 270h2v2h-2zM536 270h2v2h-2zM550 270h14v2h-14zM566 270h2v2h-2zM608 270h8v2h-8zM618 270h2v2h-2zM634 270h6v2h-6zM756 270h14v2h-14zM526 272h10v2h-10zM538 272h2v6h-2zM552 272h2v2h-2zM564 272h2v2h-2zM588 272h4v4h-4zM612 272h2v2h-2zM620 272h2v2h-2zM632 272h4v2h-4zM638 272h16v2h-16zM672 272h4v4h-4zM694 272h2v2h-2zM702 272h2v2h-2zM756 272h2v2h-2zM768 272h2v2h-2zM524 274h2v2h-2zM532 274h2v2h-2zM552 274h14v2h-14zM610 274h4v2h-4zM626 274h4v2h-4zM634 274h2v6h-2zM638 274h2v6h-2zM644 274h2v4h-2zM650 274h2v10h-2zM694 274h10v2h-10zM756 274h14v2h-14zM530 276h6v2h-6zM552 276h2v2h-2zM564 276h2v2h-2zM610 276h6v2h-6zM622 276h6v2h-6zM694 276h2v2h-2zM702 276h2v2h-2zM756 276h2v2h-2zM768 276h2v2h-2zM524 278h8v2h-8zM540 278h2v2h-2zM552 278h14v2h-14zM608 278h2v2h-2zM612 278h2v6h-2zM618 278h4v2h-4zM626 278h2v6h-2zM642 278h2v4h-2zM692 278h2v4h-2zM704 278h2v4h-2zM752 278h22v2h-22zM530 280h2v2h-2zM538 280h2v2h-2zM542 280h2v2h-2zM552 280h2v4h-2zM564 280h2v2h-2zM634 280h6v2h-6zM708 280h6v2h-6zM756 280h2v2h-2zM768 280h2v2h-2zM528 282h4v2h-4zM534 282h4v2h-4zM544 282h2v2h-2zM562 282h4v2h-4zM640 282h2v2h-2zM728 282h22v2h-22zM752 282h4v2h-4zM770 282h4v2h-4z"/></svg>
