<svg xmlns="http://www.w3.org/2000/svg" width="880" height="64" viewBox="0 0 880 64" fill="none" role="img" aria-labelledby="t d" shape-rendering="crispEdges"><title id="t">QUEST LOG · 任务日志</title><desc id="d"></desc><path fill="#D5CAE4" d="M16 8h856v4h4v4h4v40h-4v4h-4v4h-856v-4h-4v-4h-4v-40h4v-4h4z"/><path fill="#2A2140" d="M8 0h856v4h4v4h4v40h-4v4h-4v4h-856v-4h-4v-4h-4v-40h4v-4h4z"/><path fill="#FFFDF8" d="M8 4h856v4h4v40h-4v4h-856v-4h-4v-40h4z"/><path fill="#F4A48C" d="M8 4h856v4h4v40h-4v4h-856v-4h-4v-40h4z"/><path fill="#CF6247" opacity=".28" d="M12 12h848v2h-848zM12 18h848v2h-848zM12 24h848v2h-848zM12 30h848v2h-848zM12 36h848v2h-848zM12 42h848v2h-848z"/><path fill="#2A2140" d="M4 52h864v4h-864z"/><path fill="#FFFDF8" d="M26 12h280v2h2v28h-2v2h-280v-2h-2v-28h2z"/><path fill="#2A2140" d="M42 16h10v2h-10zM56 16h4v12h-4zM66 16h4v12h-4zM72 16h14v2h-14zM90 16h10v2h-10zM106 16h12v2h-12zM138 16h4v12h-4zM154 16h10v2h-10zM172 16h10v2h-10zM40 18h4v10h-4zM50 18h4v6h-4zM72 18h4v4h-4zM88 18h4v4h-4zM98 18h4v2h-4zM110 18h4v12h-4zM152 18h4v10h-4zM162 18h4v10h-4zM170 18h4v2h-4zM168 20h4v6h-4zM72 22h12v2h-12zM90 22h10v2h-10zM176 22h6v2h-6zM46 24h8v2h-8zM72 24h4v4h-4zM98 24h4v4h-4zM178 24h4v4h-4zM48 26h4v2h-4zM88 26h4v2h-4zM170 26h4v2h-4zM42 28h8v2h-8zM52 28h2v2h-2zM58 28h10v2h-10zM72 28h14v2h-14zM90 28h10v2h-10zM138 28h12v2h-12zM154 28h10v2h-10zM172 28h10v2h-10z"/><path fill="#CF6247" d="M200 13h2v4h-2zM212 13h4v2h-4zM226 13h2v2h-2zM246 13h18v2h-18zM278 13h2v4h-2zM204 15h8v2h-8zM226 15h12v2h-12zM246 15h2v8h-2zM262 15h2v8h-2zM198 17h2v4h-2zM210 17h2v6h-2zM224 17h2v2h-2zM236 17h2v2h-2zM268 17h22v2h-22zM220 19h4v2h-4zM226 19h2v2h-2zM234 19h2v2h-2zM278 19h2v4h-2zM196 21h4v2h-4zM228 21h6v2h-6zM198 23h2v12h-2zM202 23h16v2h-16zM220 23h8v2h-8zM234 23h8v2h-8zM246 23h18v2h-18zM270 23h18v2h-18zM210 25h2v8h-2zM228 25h2v2h-2zM246 25h2v8h-2zM262 25h2v8h-2zM222 27h18v2h-18zM270 27h2v4h-2zM274 27h2v6h-2zM278 27h2v2h-2zM286 27h2v2h-2zM228 29h2v2h-2zM238 29h2v4h-2zM280 29h2v2h-2zM288 29h2v4h-2zM226 31h2v2h-2zM268 31h2v2h-2zM284 31h2v2h-2zM204 33h12v2h-12zM220 33h6v2h-6zM234 33h4v2h-4zM246 33h18v2h-18zM276 33h10v2h-10z"/><path fill="#FFFDF8" d="M638 12h208v2h2v28h-2v2h-208v-2h-2v-28h2z"/><path fill="#5E5575" d="M646 19h4v2h-4zM662 19h4v2h-4zM674 19h4v2h-4zM684 19h6v2h-6zM694 19h2v10h-2zM700 19h2v6h-2zM704 19h2v6h-2zM710 19h8v2h-8zM736 19h2v2h-2zM746 19h2v2h-2zM762 19h4v2h-4zM772 19h2v8h-2zM782 19h8v2h-8zM796 19h4v2h-4zM806 19h6v2h-6zM818 19h8v2h-8zM830 19h6v2h-6zM644 21h2v2h-2zM660 21h2v2h-2zM666 21h2v2h-2zM672 21h2v6h-2zM678 21h2v2h-2zM686 21h2v8h-2zM710 21h2v2h-2zM734 21h4v2h-4zM744 21h2v6h-2zM748 21h2v6h-2zM760 21h2v6h-2zM766 21h2v2h-2zM782 21h2v2h-2zM794 21h2v2h-2zM800 21h2v2h-2zM806 21h2v2h-2zM812 21h2v2h-2zM818 21h2v2h-2zM830 21h2v6h-2zM836 21h2v6h-2zM644 23h4v2h-4zM660 23h8v2h-8zM710 23h6v2h-6zM736 23h2v6h-2zM782 23h6v2h-6zM794 23h8v2h-8zM806 23h6v2h-6zM818 23h6v2h-6zM644 25h2v2h-2zM648 25h2v2h-2zM660 25h2v4h-2zM666 25h2v4h-2zM678 25h2v2h-2zM702 25h2v4h-2zM710 25h2v2h-2zM766 25h2v2h-2zM782 25h2v2h-2zM794 25h2v4h-2zM800 25h2v4h-2zM806 25h2v4h-2zM812 25h2v4h-2zM818 25h2v2h-2zM646 27h2v2h-2zM674 27h4v2h-4zM710 27h8v2h-8zM746 27h2v2h-2zM762 27h4v2h-4zM772 27h6v2h-6zM782 27h8v2h-8zM818 27h8v2h-8zM830 27h6v2h-6z"/></svg>
