<svg xmlns="http://www.w3.org/2000/svg" width="432" height="184" viewBox="0 0 432 184" fill="none" role="img" aria-labelledby="t d" shape-rendering="crispEdges"><title id="t">webcam-fruit-ninja — 摄像头手势切水果</title><desc id="d">Gesture-controlled browser game</desc><path fill="#D5CAE4" d="M16 8h408v4h4v4h4v160h-4v4h-4v4h-408v-4h-4v-4h-4v-160h4v-4h4z"/><path fill="#2A2140" d="M8 0h408v4h4v4h4v160h-4v4h-4v4h-408v-4h-4v-4h-4v-160h4v-4h4z"/><path fill="#FFFDF8" d="M8 4h408v4h4v160h-4v4h-408v-4h-4v-160h4z"/><path fill="#F4A48C" d="M8 4h408v4h4v28h-4v4h-408v-4h-4v-28h4z"/><path fill="#2A2140" d="M4 40h416v4h-416z"/><path fill="#FFFDF8" d="M14 10h24v2h2v24h-2v2h-24v-2h-2v-24h2z"/><path fill="#2A2140" d="M19 13h14v2h-14zM17 15h2v2h-2zM33 15h2v2h-2zM15 17h2v4h-2zM19 17h2v4h-2zM31 17h2v4h-2zM35 17h2v4h-2zM17 21h2v2h-2zM33 21h2v2h-2zM19 23h4v2h-4zM29 23h4v2h-4zM23 25h2v2h-2zM27 25h2v2h-2zM21 27h4v2h-4zM27 27h4v2h-4zM19 29h2v2h-2zM31 29h2v2h-2zM17 31h2v2h-2zM33 31h2v2h-2zM19 33h14v2h-14z"/><path fill="#FFD15C" d="M19 15h14v2h-14zM17 17h2v4h-2zM23 17h6v4h-6zM33 17h2v4h-2zM19 21h4v2h-4zM25 21h4v2h-4zM31 21h2v2h-2zM23 23h4v2h-4zM25 25h2v2h-2zM21 29h8v2h-8zM19 31h12v2h-12z"/><path fill="#FFFFFF" d="M21 17h2v4h-2zM23 21h2v2h-2z"/><path fill="#E3A435" d="M29 17h2v6h-2zM27 23h2v2h-2zM25 27h2v2h-2zM29 29h2v2h-2zM31 31h2v2h-2z"/><path fill="#2A2140" d="M52 19h6v2h-6zM62 19h2v10h-2zM68 19h6v2h-6zM80 19h8v2h-8zM100 19h4v2h-4zM110 19h2v8h-2zM116 19h2v8h-2zM122 19h8v2h-8zM136 19h6v2h-6zM146 19h6v2h-6zM170 19h4v2h-4zM182 19h2v2h-2zM192 19h2v2h-2zM50 21h2v2h-2zM68 21h2v6h-2zM74 21h2v6h-2zM80 21h2v2h-2zM98 21h2v6h-2zM104 21h2v4h-2zM122 21h2v2h-2zM134 21h2v2h-2zM148 21h2v8h-2zM168 21h2v6h-2zM174 21h2v4h-2zM180 21h4v2h-4zM190 21h4v2h-4zM52 23h4v2h-4zM80 23h6v2h-6zM122 23h6v2h-6zM136 23h4v2h-4zM182 23h2v6h-2zM192 23h2v6h-2zM56 25h2v2h-2zM80 25h2v2h-2zM102 25h2v2h-2zM122 25h2v2h-2zM140 25h2v2h-2zM172 25h2v2h-2zM50 27h6v2h-6zM68 27h6v2h-6zM80 27h8v2h-8zM100 27h2v2h-2zM104 27h2v2h-2zM112 27h4v2h-4zM122 27h8v2h-8zM134 27h6v2h-6zM170 27h2v2h-2zM174 27h2v2h-2z"/><path fill="#FFFDF8" d="M370 14h40v2h2v16h-2v2h-40v-2h-2v-16h2z"/><path fill="#CF6247" d="M387 19h4v2h-4zM397 19h2v6h-2zM401 19h2v6h-2zM377 21h2v2h-2zM385 21h2v6h-2zM391 21h2v2h-2zM375 23h6v2h-6zM377 25h2v2h-2zM391 25h2v2h-2zM399 25h2v4h-2zM387 27h4v2h-4z"/><path fill="#2A2140" d="M46 54h4v6h-4zM114 54h6v2h-6zM144 54h4v2h-4zM152 54h4v6h-4zM186 54h4v2h-4zM208 54h4v2h-4zM112 56h4v4h-4zM18 60h4v4h-4zM24 60h4v4h-4zM30 60h4v2h-4zM36 60h8v2h-8zM46 60h10v2h-10zM60 60h8v2h-8zM72 60h8v2h-8zM82 60h14v2h-14zM110 60h24v2h-24zM138 60h10v2h-10zM150 60h10v2h-10zM172 60h10v2h-10zM184 60h6v2h-6zM192 60h10v2h-10zM204 60h8v2h-8zM214 60h8v2h-8zM30 62h8v2h-8zM42 62h8v2h-8zM54 62h8v8h-8zM66 62h4v2h-4zM78 62h8v2h-8zM88 62h4v10h-4zM94 62h4v2h-4zM112 62h4v10h-4zM120 62h6v2h-6zM130 62h4v8h-4zM138 62h4v6h-4zM144 62h4v8h-4zM152 62h4v8h-4zM172 62h6v2h-6zM180 62h4v8h-4zM186 62h4v8h-4zM192 62h6v2h-6zM200 62h4v10h-4zM208 62h4v4h-4zM220 62h4v2h-4zM18 64h32v2h-32zM72 64h14v2h-14zM94 64h16v2h-16zM120 64h4v8h-4zM160 64h16v2h-16zM192 64h4v6h-4zM214 64h10v2h-10zM18 66h20v2h-20zM46 66h4v2h-4zM70 66h4v2h-4zM78 66h8v4h-8zM94 66h4v6h-4zM172 66h4v6h-4zM208 66h8v4h-8zM220 66h4v4h-4zM20 68h4v4h-4zM28 68h4v4h-4zM34 68h4v2h-4zM42 68h8v2h-8zM66 68h8v2h-8zM136 68h6v2h-6zM36 70h8v2h-8zM46 70h10v2h-10zM60 70h8v2h-8zM72 70h14v2h-14zM132 70h18v2h-18zM154 70h6v2h-6zM180 70h16v2h-16zM208 70h4v4h-4zM214 70h10v2h-10zM204 74h6v2h-6z"/><path fill="#CF6247" d="M20 80h2v4h-2zM26 80h14v2h-14zM46 80h2v4h-2zM52 80h8v2h-8zM70 80h2v2h-2zM78 80h2v10h-2zM102 80h8v2h-8zM118 80h2v2h-2zM128 80h2v2h-2zM140 80h2v6h-2zM146 80h14v2h-14zM172 80h2v6h-2zM188 80h18v2h-18zM28 82h2v2h-2zM36 82h2v2h-2zM50 82h2v2h-2zM58 82h2v2h-2zM72 82h2v2h-2zM92 82h10v2h-10zM114 82h10v2h-10zM126 82h8v2h-8zM150 82h2v14h-2zM158 82h2v18h-2zM188 82h2v2h-2zM196 82h2v2h-2zM204 82h2v2h-2zM18 84h6v2h-6zM28 84h10v2h-10zM44 84h2v4h-2zM48 84h16v2h-16zM68 84h2v2h-2zM100 84h2v4h-2zM118 84h2v2h-2zM128 84h2v4h-2zM132 84h2v6h-2zM182 84h2v2h-2zM188 84h18v2h-18zM20 86h2v4h-2zM28 86h2v4h-2zM36 86h2v2h-2zM50 86h2v2h-2zM56 86h2v2h-2zM62 86h2v2h-2zM70 86h2v2h-2zM118 86h4v2h-4zM124 86h2v2h-2zM140 86h6v2h-6zM162 86h8v2h-8zM172 86h4v4h-4zM180 86h2v2h-2zM188 86h2v2h-2zM196 86h2v2h-2zM204 86h2v2h-2zM32 88h8v2h-8zM42 88h4v2h-4zM50 88h14v2h-14zM92 88h18v2h-18zM114 88h6v2h-6zM126 88h2v2h-2zM138 88h4v2h-4zM168 88h2v4h-2zM178 88h2v2h-2zM188 88h18v2h-18zM20 90h4v2h-4zM26 90h6v2h-6zM36 90h2v2h-2zM44 90h2v12h-2zM52 90h6v2h-6zM66 90h22v2h-22zM100 90h2v4h-2zM118 90h2v2h-2zM124 90h2v4h-2zM128 90h2v2h-2zM134 90h2v4h-2zM140 90h2v6h-2zM172 90h2v10h-2zM176 90h2v4h-2zM196 90h2v2h-2zM18 92h4v2h-4zM48 92h4v2h-4zM56 92h4v2h-4zM62 92h2v2h-2zM76 92h2v4h-2zM116 92h2v2h-2zM166 92h2v4h-2zM186 92h22v2h-22zM20 94h2v6h-2zM26 94h6v2h-6zM34 94h6v2h-6zM52 94h4v2h-4zM58 94h4v2h-4zM80 94h2v2h-2zM90 94h22v2h-22zM114 94h20v2h-20zM144 94h2v2h-2zM178 94h2v2h-2zM192 94h2v2h-2zM196 94h2v8h-2zM200 94h2v2h-2zM26 96h2v2h-2zM30 96h2v2h-2zM34 96h2v2h-2zM38 96h2v2h-2zM48 96h4v2h-4zM56 96h4v2h-4zM62 96h2v4h-2zM74 96h2v2h-2zM82 96h2v2h-2zM100 96h2v4h-2zM122 96h2v2h-2zM132 96h2v4h-2zM140 96h4v2h-4zM148 96h2v4h-2zM164 96h2v2h-2zM180 96h2v2h-2zM190 96h2v2h-2zM202 96h2v2h-2zM28 98h2v2h-2zM36 98h2v2h-2zM52 98h4v2h-4zM58 98h2v2h-2zM70 98h4v2h-4zM84 98h2v2h-2zM120 98h2v2h-2zM140 98h2v2h-2zM162 98h2v2h-2zM182 98h2v2h-2zM186 98h4v2h-4zM204 98h4v2h-4zM18 100h4v2h-4zM26 100h2v2h-2zM30 100h2v2h-2zM34 100h2v2h-2zM38 100h2v2h-2zM48 100h4v2h-4zM56 100h4v2h-4zM66 100h4v2h-4zM86 100h2v2h-2zM96 100h6v2h-6zM116 100h4v2h-4zM128 100h4v2h-4zM146 100h2v2h-2zM154 100h4v2h-4zM168 100h6v2h-6z"/><path fill="#5E5575" d="M22 110h6v2h-6zM58 110h2v6h-2zM150 110h2v6h-2zM180 110h4v2h-4zM188 110h4v2h-4zM216 110h2v6h-2zM232 110h2v6h-2zM20 112h2v2h-2zM28 112h2v2h-2zM182 112h2v14h-2zM190 112h2v14h-2zM18 114h2v10h-2zM34 116h6v2h-6zM46 116h6v2h-6zM56 116h8v2h-8zM66 116h2v10h-2zM74 116h2v8h-2zM78 116h2v2h-2zM82 116h4v2h-4zM90 116h6v2h-6zM114 116h6v2h-6zM126 116h6v2h-6zM136 116h2v2h-2zM140 116h4v2h-4zM148 116h8v2h-8zM158 116h2v2h-2zM162 116h4v2h-4zM170 116h6v2h-6zM198 116h6v2h-6zM210 116h8v2h-8zM232 116h8v2h-8zM244 116h2v2h-2zM248 116h4v2h-4zM256 116h6v2h-6zM266 116h2v8h-2zM272 116h2v4h-2zM278 116h2v8h-2zM284 116h6v2h-6zM296 116h6v2h-6zM306 116h2v2h-2zM310 116h4v2h-4zM330 116h8v2h-8zM342 116h6v2h-6zM352 116h6v2h-6zM360 116h4v2h-4zM370 116h6v2h-6zM32 118h2v2h-2zM40 118h2v2h-2zM44 118h2v2h-2zM52 118h2v2h-2zM58 118h2v8h-2zM78 118h4v2h-4zM88 118h2v2h-2zM96 118h2v2h-2zM112 118h2v8h-2zM120 118h2v2h-2zM124 118h2v8h-2zM132 118h2v8h-2zM136 118h4v2h-4zM144 118h2v10h-2zM150 118h2v8h-2zM158 118h4v2h-4zM168 118h2v8h-2zM176 118h2v8h-2zM196 118h2v2h-2zM204 118h2v2h-2zM208 118h2v8h-2zM216 118h2v8h-2zM232 118h2v8h-2zM240 118h2v8h-2zM244 118h4v2h-4zM254 118h2v8h-2zM262 118h2v8h-2zM282 118h2v2h-2zM290 118h2v2h-2zM294 118h2v2h-2zM302 118h2v2h-2zM306 118h4v2h-4zM328 118h2v8h-2zM336 118h2v8h-2zM348 118h2v2h-2zM352 118h2v10h-2zM358 118h2v10h-2zM364 118h2v10h-2zM368 118h2v2h-2zM376 118h2v2h-2zM26 120h4v2h-4zM32 120h10v2h-10zM46 120h4v2h-4zM78 120h2v8h-2zM88 120h10v2h-10zM100 120h10v2h-10zM136 120h2v8h-2zM158 120h2v8h-2zM196 120h10v2h-10zM244 120h2v8h-2zM270 120h2v4h-2zM274 120h2v4h-2zM284 120h4v2h-4zM294 120h10v2h-10zM306 120h2v8h-2zM342 120h8v2h-8zM368 120h10v2h-10zM28 122h2v4h-2zM32 122h2v4h-2zM50 122h2v2h-2zM88 122h2v4h-2zM196 122h2v4h-2zM288 122h2v2h-2zM294 122h2v4h-2zM340 122h2v4h-2zM348 122h2v4h-2zM368 122h2v4h-2zM20 124h2v2h-2zM40 124h2v2h-2zM44 124h2v2h-2zM52 124h2v2h-2zM72 124h4v2h-4zM96 124h2v2h-2zM120 124h2v2h-2zM204 124h2v2h-2zM268 124h2v4h-2zM276 124h2v4h-2zM282 124h2v2h-2zM290 124h2v2h-2zM302 124h2v2h-2zM376 124h2v2h-2zM22 126h8v2h-8zM34 126h6v2h-6zM46 126h6v2h-6zM60 126h4v2h-4zM68 126h4v2h-4zM74 126h2v2h-2zM90 126h6v2h-6zM114 126h6v2h-6zM126 126h6v2h-6zM152 126h4v2h-4zM170 126h6v2h-6zM182 126h4v2h-4zM190 126h4v2h-4zM198 126h6v2h-6zM210 126h8v2h-8zM232 126h8v2h-8zM256 126h6v2h-6zM284 126h6v2h-6zM296 126h6v2h-6zM330 126h8v2h-8zM342 126h8v2h-8zM370 126h6v2h-6zM336 128h2v2h-2zM330 130h6v2h-6z"/><path fill="#2A2140" d="M246 135h14v2h-14zM244 137h2v2h-2zM260 137h2v2h-2zM242 139h2v4h-2zM246 139h2v4h-2zM258 139h2v4h-2zM262 139h2v4h-2zM244 143h2v2h-2zM260 143h2v2h-2zM246 145h4v2h-4zM256 145h4v2h-4zM250 147h2v2h-2zM254 147h2v2h-2zM248 149h4v2h-4zM254 149h4v2h-4zM246 151h2v2h-2zM258 151h2v2h-2zM244 153h2v2h-2zM260 153h2v2h-2zM246 155h14v2h-14z"/><path fill="#FFD15C" d="M246 137h14v2h-14zM244 139h2v4h-2zM250 139h6v4h-6zM260 139h2v4h-2zM246 143h4v2h-4zM252 143h4v2h-4zM258 143h2v2h-2zM250 145h4v2h-4zM252 147h2v2h-2zM248 151h8v2h-8zM246 153h12v2h-12z"/><path fill="#FFFFFF" d="M248 139h2v4h-2zM250 143h2v2h-2z"/><path fill="#E3A435" d="M256 139h2v6h-2zM254 145h2v2h-2zM252 149h2v2h-2zM256 151h2v2h-2zM258 153h2v2h-2z"/><path fill="#B98713" d="M360 135h2v2h-2zM370 135h2v2h-2zM388 135h2v8h-2zM394 135h2v2h-2zM272 137h14v2h-14zM360 137h8v2h-8zM370 137h10v2h-10zM382 137h2v2h-2zM394 137h10v2h-10zM278 139h2v16h-2zM358 139h2v2h-2zM364 139h2v2h-2zM368 139h2v2h-2zM374 139h2v2h-2zM384 139h2v2h-2zM394 139h2v2h-2zM402 139h2v4h-2zM360 141h18v2h-18zM392 141h2v2h-2zM396 141h2v2h-2zM288 143h2v2h-2zM292 143h4v2h-4zM300 143h6v2h-6zM312 143h6v2h-6zM368 143h2v2h-2zM386 143h4v2h-4zM398 143h4v2h-4zM288 145h4v2h-4zM306 145h2v2h-2zM310 145h2v2h-2zM318 145h2v2h-2zM334 145h22v2h-22zM358 145h22v2h-22zM382 145h4v2h-4zM388 145h2v2h-2zM392 145h6v2h-6zM288 147h2v8h-2zM300 147h8v2h-8zM310 147h10v2h-10zM374 147h2v2h-2zM392 147h2v2h-2zM298 149h2v4h-2zM306 149h2v4h-2zM310 149h2v4h-2zM358 149h22v2h-22zM382 149h22v2h-22zM318 151h2v2h-2zM364 151h2v2h-2zM374 151h2v4h-2zM390 151h2v2h-2zM394 151h2v2h-2zM300 153h8v2h-8zM312 153h6v2h-6zM366 153h2v2h-2zM386 153h4v2h-4zM396 153h4v2h-4zM370 155h6v2h-6zM382 155h4v2h-4zM400 155h4v2h-4z"/><path fill="#F5EDF4" d="M20 136h106v2h2v16h-2v2h-106v-2h-2v-16h2z"/><path fill="#5E5575" d="M25 141h2v2h-2zM33 141h2v2h-2zM39 141h8v2h-8zM51 141h6v2h-6zM63 141h2v10h-2zM71 141h4v2h-4zM81 141h6v2h-6zM93 141h2v10h-2zM99 141h6v2h-6zM111 141h8v2h-8zM25 143h4v2h-4zM31 143h4v2h-4zM39 143h2v2h-2zM51 143h2v6h-2zM57 143h2v6h-2zM69 143h2v2h-2zM75 143h2v2h-2zM81 143h2v2h-2zM87 143h2v2h-2zM99 143h2v2h-2zM105 143h2v2h-2zM111 143h2v2h-2zM25 145h2v6h-2zM29 145h2v2h-2zM33 145h2v6h-2zM39 145h6v2h-6zM69 145h8v2h-8zM81 145h6v2h-6zM99 145h6v2h-6zM111 145h6v2h-6zM39 147h2v2h-2zM69 147h2v4h-2zM75 147h2v4h-2zM81 147h2v4h-2zM99 147h2v4h-2zM111 147h2v2h-2zM39 149h8v2h-8zM51 149h6v2h-6zM111 149h8v2h-8z"/><path fill="#F5EDF4" d="M135 136h58v2h2v16h-2v2h-58v-2h-2v-16h2z"/><path fill="#5E5575" d="M140 141h6v2h-6zM150 141h8v2h-8zM172 141h2v8h-2zM180 141h6v2h-6zM142 143h2v8h-2zM150 143h2v2h-2zM178 143h2v2h-2zM150 145h6v2h-6zM180 145h4v2h-4zM150 147h2v4h-2zM168 147h2v2h-2zM184 147h2v2h-2zM162 149h2v2h-2zM170 149h2v2h-2zM178 149h6v2h-6z"/></svg>
